/* XPM */
static char *xmind[] = {
/* columns rows colors chars-per-pixel */
"48 48 171 2 ",
"   c #CF1D14",
".  c #CF1E15",
"X  c #D01F16",
"o  c #CF2016",
"O  c #D02016",
"+  c #D02017",
"@  c #D02117",
"#  c #D02118",
"$  c #D02218",
"%  c #D02219",
"&  c #D02319",
"*  c #D0231A",
"=  c #D1231A",
"-  c #D0241A",
";  c #D0241B",
":  c #D1251C",
">  c #D1261C",
",  c #D1261D",
"<  c #D1271D",
"1  c #D1271E",
"2  c #D1281F",
"3  c #D1291F",
"4  c #D22920",
"5  c #D22A20",
"6  c #D22A21",
"7  c #D22B21",
"8  c #D22B22",
"9  c #D22B23",
"0  c #D32C23",
"q  c #D32D24",
"w  c #D32F26",
"e  c #D33027",
"r  c #D33128",
"t  c #D43129",
"y  c #D4322A",
"u  c #D4332A",
"i  c #D4352C",
"p  c #D4352D",
"a  c #D4362E",
"s  c #D4372E",
"d  c #D5372E",
"f  c #D53930",
"g  c #D53931",
"h  c #D53B33",
"j  c #D63A32",
"k  c #D74038",
"l  c #D64138",
"z  c #D74239",
"x  c #D7413A",
"c  c #D7433B",
"v  c #D7443C",
"b  c #D7453C",
"n  c #D8463E",
"m  c #D84840",
"M  c #D84841",
"N  c #D94942",
"B  c #D94A42",
"V  c #D94B43",
"C  c #D94C45",
"Z  c #D94D45",
"A  c #D94E46",
"S  c #DA514A",
"D  c #DA524B",
"F  c #DB534B",
"G  c #DB554D",
"H  c #DB5750",
"J  c #DC5A53",
"K  c #DD5C56",
"L  c #DC5D57",
"P  c #DD6059",
"I  c #DE6058",
"U  c #DE6159",
"Y  c #DE625B",
"T  c #DE635C",
"R  c #DE645E",
"E  c #DE655E",
"W  c #DF655E",
"Q  c #DF655F",
"!  c #DF665F",
"~  c #DF6A63",
"^  c #E06D67",
"/  c #E1706A",
"(  c #E1736D",
")  c #E37871",
"_  c #E27973",
"`  c #E37B75",
"'  c #E47F79",
"]  c #E58581",
"[  c #E78B87",
"{  c #E78C87",
"}  c #E78D89",
"|  c #E88E89",
" . c #E7908B",
".. c #E8908C",
"X. c #E8928E",
"o. c #E8938E",
"O. c #E89590",
"+. c #E99590",
"@. c #E99491",
"#. c #E99591",
"$. c #E99691",
"%. c #EA9793",
"&. c #E99995",
"*. c #EA9E99",
"=. c #EA9F9A",
"-. c #EB9F9B",
";. c #EBA29E",
":. c #ECA29E",
">. c #EDA6A2",
",. c #ECA7A4",
"<. c #ECA9A4",
"1. c #EEA9A6",
"2. c #EDAAA6",
"3. c #EDABA7",
"4. c #EDACA8",
"5. c #F0B4B2",
"6. c #F0B8B5",
"7. c #F1BAB7",
"8. c #F1BCB9",
"9. c #F1BDBA",
"0. c #F1BEBB",
"q. c #F2BEBB",
"w. c #F3C4C1",
"e. c #F2C4C2",
"r. c #F3C5C2",
"t. c #F3C6C3",
"y. c #F5CCC9",
"u. c #F5CCCA",
"i. c #F4CCCB",
"p. c #F4CFCD",
"a. c #F6D2CF",
"s. c #F5D2D0",
"d. c #F6D4D2",
"f. c #F7D7D5",
"g. c #F7D8D6",
"h. c #F7DAD8",
"j. c #F7DBD9",
"k. c #F8DDDB",
"l. c #F8DEDC",
"z. c #F9E1E0",
"x. c #F9E4E3",
"c. c #FAE4E3",
"v. c #F9E5E4",
"b. c #FAE6E5",
"n. c #FAE8E7",
"m. c #FAE8E8",
"M. c #FBEAE9",
"N. c #FBEBEA",
"B. c #FBECEB",
"V. c #FBEEED",
"C. c #FBEFEE",
"Z. c #FCECEC",
"A. c #FCEFEF",
"S. c #FCF0EF",
"D. c #FCF1F0",
"F. c #FCF1F1",
"G. c #FCF2F2",
"H. c #FDF2F2",
"J. c #FCF3F2",
"K. c #FDF4F3",
"L. c #FDF5F5",
"P. c #FDF6F5",
"I. c #FDF6F6",
"U. c #FDF7F7",
"Y. c #FEFAF9",
"T. c #FEFAFA",
"R. c #FEFCFC",
"E. c #FFFDFD",
"W. c #FFFEFE",
"Q. c white",
"!. c None",
/* pixels */
"!.!.!.!.!.!.!.!.!.!.!.!.!.!.!.!.!.!.!.!.!.!.!.!.!.!.!.!.!.!.!.!.!.!.!.!.!.!.!.!.!.!.!.!.!.!.!.!.",
"!.!.!.!.!.!.!.!.!.!.!.!.!.!.!.!.!.!.!.!.!.!.!.!.!.!.!.!.!.!.!.!.!.!.!.8 8 8 8 8 !.!.!.!.!.!.!.!.",
"!.!.!.!.!.!.!.!.!.!.!.!.!.!.!.!.!.!.!.!.!.!.!.!.!.!.!.!.!.8 8 8 8 8 8 8 8 8 8 8 8 !.!.!.!.!.!.!.",
"!.!.!.!.!.!.!.!.!.!.!.!.!.!.!.!.!.!.!.!.!.!.!.!.8 8 8 8 8 8 8 8 8 8 8 8 8 8 8 8 8 !.!.!.!.!.!.!.",
"!.!.!.!.!.!.!.!.!.!.!.!.!.!.!.!.!.!.8 8 8 8 8 8 8 8 8 8 8 8 8 8 8 8 8 8 8 8 8 8 8 !.!.!.!.!.!.!.",
"!.!.!.!.!.!.!.!.!.!.!.!.8 8 8 8 8 8 8 8 8 8 8 8 8 8 8 8 8 8 8 8 8 8 8 8 8 8 8 8 8 !.!.!.!.!.!.!.",
"!.!.!.!.!.!.!.8 8 8 8 8 8 8 8 8 8 8 8 8 8 8 8 8 8 8 8 8 8 8 8 8 8 8 8 8 8 8 8 8 8 !.!.!.!.!.!.!.",
"!.!.8 8 8 8 8 8 8 8 8 8 8 8 8 8 8 8 8 8 8 8 8 8 8 8 8 8 8 8 8 8 8 8 8 8 8 8 8 8 8 8 !.!.!.!.!.!.",
"!.8 8 8 8 8 8 8 8 8 8 8 8 8 8 8 8 8 8 8 8 8 8 8 8 8 8 8 8 8 8 8 8 8 8 8 8 8 8 8 8 8 !.!.!.!.!.!.",
"!.8 8 8 8 8 8 8 8 8 8 8 8 8 8 8 8 8 8 8 8 8 8 8 8 8 8 8 8 8 8 8 8 8 8 8 8 8 8 8 8 8 !.!.!.!.!.!.",
"!.8 8 8 8 8 8 8 8 8 8 8 8 8 8 8 8 8 8 8 8 8 8 8 8 8 8 8 8 8 8 8 8 8 8 8 8 8 8 8 8 8 !.!.!.!.!.!.",
"!.8 8 8 8 8 8 8 8 8 8 8 8 8 8 8 8 8 8 8 8 8 8 8 8 8 8 8 8 8 8 8 8 8 8 8 8 8 8 8 8 8 !.!.!.!.!.!.",
"!.8 8 8 8 8 8 8 8 8 8 8 8 6 4 4 9 r 8 8 8 8 8 8 8 8 8 8 8 8 8 8 8 8 6 5 4 4 8 8 8 8 8 !.!.!.!.!.",
"!.!.8 8 8 8 8 8 6 : $ . r Z ~ ] :.9.K 1 8 8 8 8 8 8 8 8 8 4 : % . q B ! ' ` r 8 8 8 8 !.!.!.!.!.",
"!.!.8 8 8 8 8 3 u ) ,.f.N.D.U.W.Q.Q.i.X 8 8 8 8 8 8 8 8 1 l _ ;.a.M.S.I.R.Q.E 4 8 8 8 !.!.!.!.!.",
"!.!.8 8 8 8 6 j K.Q.Q.Q.Q.Q.Q.Q.Q.Q.D.N 6 8 8 8 8 8 8 6 z U.Q.Q.Q.Q.Q.Q.Q.Q. ., 8 8 8 !.!.!.!.!.",
"!.!.8 8 8 8 8 8 c.Q.Q.Q.Q.Q.Q.Q.Q.Q.W.$.8 8 8 8 8 8 8 8 , l.Q.Q.Q.Q.Q.Q.Q.Q.+., 8 8 8 !.!.!.!.!.",
"!.!.8 8 8 8 8 * } Q.Q.Q.Q.Q.Q.Q.Q.Q.Q.I.n 6 8 8 8 8 8 8 $ <.Q.Q.Q.Q.Q.Q.Q.Q.Y 4 8 8 8 !.!.!.!.!.",
"!.!.8 8 8 8 8 8 = k.Q.Q.Q.Q.Q.Q.Q.Q.Q.Q.Z.x 6 6 8 8 8 6 * 7.Q.Q.Q.Q.Q.Q.Q.s.a 8 8 8 8 8 !.!.!.!.",
"!.!.!.8 8 8 8 8 6 x g.Q.Q.Q.Q.Q.Q.Q.Q.Q.Q.F.[ m &   2 M ..T.Q.Q.Q.Q.Q.Q.0.V 6 8 8 8 8 8 !.!.!.!.",
"!.!.!.8 8 8 8 8 8 8 f 6.Q.Q.Q.Q.Q.Q.Q.Q.Q.Q.E.A.b.z.n.S.E.Q.Q.Q.Q.V.-.A u 5 8 8 8 8 8 8 !.!.!.!.",
"!.!.!.8 8 8 8 8 8 8 8 @ U f.P.Q.Q.Q.Q.Q.Q.Q.Q.Q.Q.Q.Q.Q.Q.Q.Q.B.G   : 6 8 8 8 8 8 8 8 8 !.!.!.!.",
"!.!.!.8 8 8 8 8 8 8 8 8 , 4 P *.h.Q.Q.Q.Q.Q.Q.Q.Q.Q.Q.Q.Q.Q.Q.L.-.F & 2 8 8 8 8 8 8 8 8 !.!.!.!.",
"!.!.!.8 8 8 8 8 8 8 8 8 8 8 5 8 a L m.Q.Q.Q.Q.Q.Q.Q.Q.Q.Q.Q.Q.Q.Q.G.e.C $ 6 8 8 8 8 8 8 !.!.!.!.",
"!.!.!.!.8 8 8 8 8 8 8 8 8 8 8 6 8 y =.Q.Q.Q.Q.Q.Q.Q.Q.Q.Q.Q.Q.Q.Q.Q.Q.Q.8.N 8 8 8 8 8 8 8 !.!.!.",
"!.!.!.!.8 8 8 8 8 8 8 8 8 1 @ D O.j.Q.Q.Q.Q.Q.Q.Q.Q.Q.Q.Q.Q.Q.Q.Q.Q.Q.Q.Q.P.&.e 2 8 8 8 8 !.!.!.",
"!.!.!.!.8 8 8 8 8 8 8 8 : S y.J.Q.Q.Q.Q.5.T v c G { z.Q.Q.Q.Q.Q.Q.Q.Q.Q.Q.Q.Q.d.j 6 8 8 8 !.!.!.",
"!.!.!.!.8 8 8 8 8 8 6 g 3.Q.Q.Q.Q.Q.L.^ ; 4 8 8 6 < . Y k.Q.Q.Q.Q.Q.Q.Q.Q.Q.Q.Q.t.p 8 8 8 !.!.!.",
"!.!.!.!.8 8 8 8 8 6 P b.Q.Q.Q.Q.Q.Q.%.O 8 8 8 8 8 8 8 , i 1.Q.Q.Q.Q.Q.Q.Q.Q.Q.Q.Q.#.- 8 8 !.!.!.",
"!.!.!.!.8 8 8 8 8 n H.Q.Q.Q.Q.Q.Q.Q.0 6 8 8 8 8 8 8 8 8 6 8 2.Q.Q.Q.Q.Q.Q.Q.Q.Q.Q.Q.h 4 8 8 !.!.",
"!.!.!.!.!.8 8 8 ; u.Q.Q.Q.Q.Q.Q.Q.z.# 8 8 8 8 8 8 8 8 8 8 8 s x.Q.Q.Q.Q.Q.Q.Q.Q.Q.Q.o.* 8 8 !.!.",
"!.!.!.!.!.8 8 2 b Q.Q.Q.Q.Q.Q.Q.Q.p.% 8 8 8 8 8 8 8 8 8 8 8 7 X.Q.Q.Q.Q.Q.Q.Q.Q.Q.Q.>.% 8 8 !.!.",
"!.!.!.!.!.8 8 > / Q.Q.Q.Q.Q.Q.Q.C.( 2 8 8 8 8 8 8 8 8 8 8 8 6 J I.Q.Q.Q.Q.K.w.#.Q v p 6 8 8 !.!.",
"!.!.!.!.!.8 8 , R Y.V.v.q.| I t o 2 8 8 8 8 8 8 8 8 8 8 8 8 8 1 4.r.@.W d X * , 4 8 8 8 8 8 !.!.",
"!.!.!.!.!.8 8 8 w H k * + - 1 6 8 8 8 8 8 8 8 8 8 8 8 8 8 8 8 8 $ O * , 4 8 8 8 8 8 8 8 8 8 !.!.",
"!.!.!.!.!.8 8 8 8 6 6 8 8 8 8 8 8 8 8 8 8 8 8 8 8 8 8 8 8 8 8 8 8 8 8 8 8 8 8 8 8 8 8 8 8 8 8 !.",
"!.!.!.!.!.!.8 8 8 8 8 8 8 8 8 8 8 8 8 8 8 8 8 8 8 8 8 8 8 8 8 8 8 8 8 8 8 8 8 8 8 8 8 8 8 8 8 !.",
"!.!.!.!.!.!.8 8 8 8 8 8 8 8 8 8 8 8 8 8 8 8 8 8 8 8 8 8 8 8 8 8 8 8 8 8 8 8 8 8 8 8 8 8 8 8 8 !.",
"!.!.!.!.!.!.8 8 8 8 8 8 8 8 8 8 8 8 8 8 8 8 8 8 8 8 8 8 8 8 8 8 8 8 8 8 8 8 8 8 8 8 8 8 8 8 8 !.",
"!.!.!.!.!.!.8 8 8 8 8 8 8 8 8 8 8 8 8 8 8 8 8 8 8 8 8 8 8 8 8 8 8 8 8 8 8 8 8 8 8 8 8 8 8 8 8 !.",
"!.!.!.!.!.!.8 8 8 8 8 8 8 8 8 8 8 8 8 8 8 8 8 8 8 8 8 8 8 8 8 8 8 8 8 8 8 8 8 8 8 8 8 8 8 8 !.!.",
"!.!.!.!.!.!.!.8 8 8 8 8 8 8 8 8 8 8 8 8 8 8 8 8 8 8 8 8 8 8 8 8 8 8 8 8 8 8 8 8 8 8 !.!.!.!.!.!.",
"!.!.!.!.!.!.!.8 8 8 8 8 8 8 8 8 8 8 8 8 8 8 8 8 8 8 8 8 8 8 8 8 8 8 8 8 8 !.!.!.!.!.!.!.!.!.!.!.",
"!.!.!.!.!.!.!.8 8 8 8 8 8 8 8 8 8 8 8 8 8 8 8 8 8 8 8 8 8 8 8 !.!.!.!.!.!.!.!.!.!.!.!.!.!.!.!.!.",
"!.!.!.!.!.!.!.8 8 8 8 8 8 8 8 8 8 8 8 8 8 8 8 8 8 !.!.!.!.!.!.!.!.!.!.!.!.!.!.!.!.!.!.!.!.!.!.!.",
"!.!.!.!.!.!.!.8 8 8 8 8 8 8 8 8 8 8 8 8 !.!.!.!.!.!.!.!.!.!.!.!.!.!.!.!.!.!.!.!.!.!.!.!.!.!.!.!.",
"!.!.!.!.!.!.!.!.8 8 8 8 8 8 !.!.!.!.!.!.!.!.!.!.!.!.!.!.!.!.!.!.!.!.!.!.!.!.!.!.!.!.!.!.!.!.!.!.",
"!.!.!.!.!.!.!.!.!.!.!.!.!.!.!.!.!.!.!.!.!.!.!.!.!.!.!.!.!.!.!.!.!.!.!.!.!.!.!.!.!.!.!.!.!.!.!.!."
};
